<svg height="512" viewBox="0 0 59 60" width="512" xmlns="http://www.w3.org/2000/svg"><g id="Page-1" fill="none" fill-rule="evenodd"><g id="053---Buffed-Weapon" fill-rule="nonzero"><path id="Shape" d="m23.656 43.594 33.531-26.281 1.813-16.313-16.313 1.813-26.281 33.531 1.922 5.421z" fill="#95a5a5"/><path id="Shape" d="m59 1-1.81 16.31-9.97-4.53-4.53-9.97z" fill="#7f8c8d"/><path id="Shape" d="m20.031 40.969c-.4043959-.0000863-.7689341-.2437275-.923678-.6173454-.1547439-.373618-.0692299-.8036603.216678-1.0896546l6.344-6.344c.3923789-.3789722 1.0160848-.3735524 1.4018186.0121814s.3911536 1.0094397.0121814 1.4018186l-6.344 6.344c-.1874927.1875494-.4418052.2929434-.707.293z" fill="#bdc3c7"/><path id="Shape" d="m30 31c-.4043959-.0000863-.7689341-.2437275-.923678-.6173454-.1547439-.373618-.0692299-.8036603.216678-1.0896546l22-22c.3904653-.39074145 1.0237585-.3909653 1.4145-.00049999.3907414.39046532.3909653 1.02375853.0005 1.41449999l-22 22c-.1877377.1877946-.4424587.2932088-.708.293z" fill="#bdc3c7"/><path id="Rectangle-path" d="m7.745 39.842h7.69v17.136h-7.69z" fill="#e57e25" transform="matrix(.707 .707 -.707 .707 37.626 5.983)"/><path id="Shape" d="m10.969 54.469-3.625-7.25 3.625-3.625 3.625 7.25z" fill="#f29c1f"/><path id="Shape" d="m26.538 46.476-13.014-13.014-6.18 1.069 18.125 18.125z" fill="#f29c1f"/><circle id="Oval" cx="10.063" cy="31.813" fill="#f0c419" r="3.845"/><circle id="Oval" cx="28.188" cy="49.938" fill="#f0c419" r="3.845"/><path id="Shape" d="m10.062 60c-.26519481-.0000566-.51950727-.1054506-.707-.293l-9.062-9.062c-.39074146-.3904653-.39096532-1.0237585-.0005-1.4145s1.02375854-.3909653 1.4145-.0005l9.063 9.063c.2860368.2861229.3714873.7164079.2164868 1.0901167-.1550004.3737088-.5199089.6172016-.9244868.6168833z" fill="#f29c1f"/><path id="Shape" d="m54 42h-5c-.5522847 0-1-.4477153-1-1v-5c0-.5522847-.4477153-1-1-1h-2c-.5522847 0-1 .4477153-1 1v5c0 .5522847-.4477153 1-1 1h-5c-.5522847 0-1 .4477153-1 1v2c0 .5522847.4477153 1 1 1h5c.5522847 0 1 .4477153 1 1v5c0 .5522847.4477153 1 1 1h2c.5522847 0 1-.4477153 1-1v-5c0-.5522847.4477153-1 1-1h5c.5522847 0 1-.4477153 1-1v-2c0-.5522847-.4477153-1-1-1z" fill="#e64c3c"/><path id="Shape" d="m22 12h-2c-.5522847 0-1-.4477153-1-1v-2c0-.55228475-.4477153-1-1-1h-2c-.5522847 0-1 .44771525-1 1v2c0 .5522847-.4477153 1-1 1h-2c-.5522847 0-1 .4477153-1 1v2c0 .5522847.4477153 1 1 1h2c.5522847 0 1 .4477153 1 1v2c0 .5522847.4477153 1 1 1h2c.5522847 0 1-.4477153 1-1v-2c0-.5522847.4477153-1 1-1h2c.5522847 0 1-.4477153 1-1v-2c0-.5522847-.4477153-1-1-1z" fill="#e64c3c"/><g fill="#f0c419"><path id="Shape" d="m57 30h-1v-1c0-.5522847-.4477153-1-1-1s-1 .4477153-1 1v1h-1c-.5522847 0-1 .4477153-1 1s.4477153 1 1 1h1v1c0 .5522847.4477153 1 1 1s1-.4477153 1-1v-1h1c.5522847 0 1-.4477153 1-1s-.4477153-1-1-1z"/><path id="Shape" d="m42 56h-1v-1c0-.5522847-.4477153-1-1-1s-1 .4477153-1 1v1h-1c-.5522847 0-1 .4477153-1 1s.4477153 1 1 1h1v1c0 .5522847.4477153 1 1 1s1-.4477153 1-1v-1h1c.5522847 0 1-.4477153 1-1s-.4477153-1-1-1z"/><path id="Shape" d="m31 6h-1v-1c0-.55228475-.4477153-1-1-1s-1 .44771525-1 1v1h-1c-.5522847 0-1 .44771525-1 1s.4477153 1 1 1h1v1c0 .55228475.4477153 1 1 1s1-.44771525 1-1v-1h1c.5522847 0 1-.44771525 1-1s-.4477153-1-1-1z"/><path id="Shape" d="m11 2h-1v-1c0-.55228475-.44771525-1-1-1s-1 .44771525-1 1v1h-1c-.55228475 0-1 .44771525-1 1s.44771525 1 1 1h1v1c0 .55228475.44771525 1 1 1s1-.44771525 1-1v-1h1c.5522847 0 1-.44771525 1-1s-.4477153-1-1-1z"/><path id="Shape" d="m8 17h-1v-1c0-.5522847-.44771525-1-1-1s-1 .4477153-1 1v1h-1c-.55228475 0-1 .4477153-1 1s.44771525 1 1 1h1v1c0 .5522847.44771525 1 1 1s1-.4477153 1-1v-1h1c.55228475 0 1-.4477153 1-1s-.44771525-1-1-1z"/></g></g></g></svg>